<svg xmlns="http://www.w3.org/2000/svg" viewBox="0 0 28 26.68"><defs><style>.cls-1{fill:#ffffff;}</style></defs><g id="レイヤー_2" data-name="レイヤー 2"><g id="文字要素_スクロール_" data-name="文字要素（スクロール）"><path class="cls-1" d="M28,11.36C28,5.1,21.72,0,14,0S0,5.1,0,11.36C0,17,5,21.68,11.71,22.57c.45.1,1.07.3,1.23.69A3,3,0,0,1,13,24.53s-.17,1-.2,1.19c-.06.36-.28,1.39,1.21.76s8.06-4.75,11-8.13h0A10.09,10.09,0,0,0,28,11.36ZM9.06,14.71a.27.27,0,0,1-.27.27H4.86a.25.25,0,0,1-.18-.08h0a.23.23,0,0,1-.08-.18h0V8.61a.28.28,0,0,1,.28-.28h1a.28.28,0,0,1,.27.28v4.84H8.79a.27.27,0,0,1,.27.27Zm2.37,0a.27.27,0,0,1-.27.27h-1a.27.27,0,0,1-.27-.27V8.61a.28.28,0,0,1,.27-.28h1a.28.28,0,0,1,.27.28Zm6.76,0a.27.27,0,0,1-.28.27H16.78a.23.23,0,0,1-.07-.07l-2.8-3.78v3.63a.27.27,0,0,1-.27.27h-1a.28.28,0,0,1-.28-.27V8.61a.29.29,0,0,1,.28-.28h1.17v0h0l0,0,2.8,3.78V8.61a.28.28,0,0,1,.27-.28h1a.28.28,0,0,1,.28.28Zm5.42-5.12a.27.27,0,0,1-.27.27H20.67v1h2.67a.27.27,0,0,1,.27.28v1a.27.27,0,0,1-.27.27H20.67v1h2.67a.27.27,0,0,1,.27.27v1a.27.27,0,0,1-.27.27H19.41a.23.23,0,0,1-.18-.08h0a.23.23,0,0,1-.08-.18h0V8.61h0a.26.26,0,0,1,.08-.19h0a.23.23,0,0,1,.18-.08h3.93a.28.28,0,0,1,.27.28Z"/></g></g></svg>