<svg xmlns="http://www.w3.org/2000/svg" viewBox="0 0 25.71 20.89"><defs><style>.cls-1{fill:#ffffff;}</style></defs><g id="レイヤー_2" data-name="レイヤー 2"><g id="文字要素_スクロール_" data-name="文字要素（スクロール）"><path class="cls-1" d="M25.71,2.47a10.22,10.22,0,0,1-3,.83A5.25,5.25,0,0,0,25,.39a10.68,10.68,0,0,1-3.35,1.28,5.27,5.27,0,0,0-9.12,3.6,5.34,5.34,0,0,0,.13,1.21A15,15,0,0,1,1.79,1,5.29,5.29,0,0,0,3.42,8,5.33,5.33,0,0,1,1,7.35v.06a5.28,5.28,0,0,0,4.22,5.18,5.3,5.3,0,0,1-1.39.18,5.44,5.44,0,0,1-1-.09,5.28,5.28,0,0,0,4.93,3.66A10.56,10.56,0,0,1,1.26,18.6c-.43,0-.85,0-1.26-.07a15,15,0,0,0,8.09,2.36,14.9,14.9,0,0,0,15-15c0-.23,0-.46,0-.69A10.67,10.67,0,0,0,25.71,2.47Z"/></g></g></svg>